<svg width="219" height="224" viewBox="0 0 219 224" fill="none" xmlns="http://www.w3.org/2000/svg">
<path fill-rule="evenodd" clip-rule="evenodd" d="M219 0H0V56H19V20H200V56H219V0Z" fill="#D9D9D9"/>
<path fill-rule="evenodd" clip-rule="evenodd" d="M29.3372 54.5924L63.9999 31L98.9047 54.5319L64.1209 80.7256L29.3372 54.5924ZM66.0218 84.2417L100.242 57.9876L100.242 90.1095L66.0218 121.082L66.0218 84.2417ZM28 57.9876L62.2203 84.2417L62.2203 121.082L28 90.1095L28 57.9876Z" fill="#D9D9D9"/>
<path fill-rule="evenodd" clip-rule="evenodd" d="M119.337 54.5924L154 31L188.905 54.5319L154.121 80.7256L119.337 54.5924ZM156.022 84.2417L190.242 57.9876L190.242 90.1095L156.022 121.082L156.022 84.2417ZM118 57.9876L152.22 84.2417L152.22 121.082L118 90.1095L118 57.9876Z" fill="#D9D9D9"/>
<path fill-rule="evenodd" clip-rule="evenodd" d="M74.3372 126.592L109 103L143.905 126.532L109.121 152.726L74.3372 126.592ZM111.022 156.242L145.242 129.988L145.242 162.11L111.022 193.082L111.022 156.242ZM73 129.988L107.22 156.242L107.22 193.082L73 162.11L73 129.988Z" fill="#D9D9D9"/>
<path fill-rule="evenodd" clip-rule="evenodd" d="M219 224H0V168H19V204H200V168H219V224Z" fill="#D9D9D9"/>
</svg>
