<svg width="181" height="226" viewBox="0 0 181 226" fill="none" xmlns="http://www.w3.org/2000/svg">
<mask id="path-1-inside-1_101_19" fill="white">
<path fill-rule="evenodd" clip-rule="evenodd" d="M90.4113 0.623291L3.9287 59.4858L90.7131 124.687L101 116.941V92H52V62H101V16H113.219L90.4113 0.623291ZM131 27.9873V62H173.958L177.498 59.3348L131 27.9873ZM149.496 92H180.834L180.834 148.1L95.4556 225.376L95.4555 133.46L101 129.206V139H131V106.19L149.496 92ZM134.12 92H131V94.3495L134.12 92ZM85.9707 133.46L0.592082 67.9569L0.592041 148.1L85.9707 225.376L85.9707 133.46Z"/>
</mask>
<path d="M3.9287 59.4858L-3.94861 47.9122L-20.1269 58.9236L-4.48064 70.6788L3.9287 59.4858ZM90.4113 0.623291L98.2373 -10.985L90.3739 -16.2864L82.534 -10.9503L90.4113 0.623291ZM90.7131 124.687L82.3038 135.88L90.7229 142.206L99.1349 135.871L90.7131 124.687ZM101 116.941L109.422 128.124L115 123.924V116.941H101ZM101 92H115V78H101V92ZM52 92H38V106H52V92ZM52 62V48H38V62H52ZM101 62V76H115V62H101ZM101 16V2H87V16H101ZM113.219 16V30H159.03L121.045 4.39169L113.219 16ZM131 62H117V76H131V62ZM131 27.9873L138.826 16.3789L117 1.66433V27.9873H131ZM173.958 62V76H178.64L182.38 73.1836L173.958 62ZM177.498 59.3348L185.919 70.5185L201.607 58.7047L185.324 47.7265L177.498 59.3348ZM149.496 92V78H144.744L140.974 80.8924L149.496 92ZM180.834 92L194.834 92L194.834 78H180.834V92ZM180.834 148.1L190.229 158.48L194.834 154.312L194.834 148.1L180.834 148.1ZM95.4556 225.376L81.4556 225.376L81.4556 256.93L104.85 235.756L95.4556 225.376ZM95.4555 133.46L86.9337 122.352L81.4555 126.555L81.4555 133.46L95.4555 133.46ZM101 129.206H115V100.82L92.4782 118.099L101 129.206ZM101 139H87V153H101V139ZM131 139V153H145V139H131ZM131 106.19L122.478 95.0824L117 99.2853V106.19H131ZM131 92V78H117V92H131ZM134.12 92L142.542 103.184L175.984 78H134.12V92ZM131 94.3495H117V122.418L139.422 105.533L131 94.3495ZM0.592082 67.9569L9.11392 56.8493L-13.4079 39.5704L-13.4079 67.9569L0.592082 67.9569ZM85.9707 133.46L99.9707 133.46L99.9707 126.555L94.4925 122.353L85.9707 133.46ZM0.592041 148.1L-13.408 148.1L-13.408 154.312L-8.80265 158.48L0.592041 148.1ZM85.9707 225.376L76.576 235.756L99.9706 256.93L99.9707 225.376L85.9707 225.376ZM11.806 71.0594L98.2886 12.1969L82.534 -10.9503L-3.94861 47.9122L11.806 71.0594ZM99.1225 113.494L12.338 48.2928L-4.48064 70.6788L82.3038 135.88L99.1225 113.494ZM92.5782 105.757L82.2914 113.504L99.1349 135.871L109.422 128.124L92.5782 105.757ZM87 92V116.941H115V92H87ZM52 106H101V78H52V106ZM38 62V92H66V62H38ZM101 48H52V76H101V48ZM87 16V62H115V16H87ZM113.219 2H101V30H113.219V2ZM82.5852 12.2316L105.393 27.6083L121.045 4.39169L98.2373 -10.985L82.5852 12.2316ZM145 62V27.9873H117V62H145ZM173.958 48H131V76H173.958V48ZM169.076 48.1512L165.537 50.8164L182.38 73.1836L185.919 70.5185L169.076 48.1512ZM123.174 39.5956L169.672 70.9432L185.324 47.7265L138.826 16.3789L123.174 39.5956ZM149.496 106H180.834V78H149.496V106ZM166.834 92L166.834 148.1L194.834 148.1L194.834 92L166.834 92ZM171.439 137.72L86.0609 214.996L104.85 235.756L190.229 158.48L171.439 137.72ZM109.456 225.376L109.456 133.46L81.4555 133.46L81.4556 225.376L109.456 225.376ZM103.977 144.568L109.522 140.314L92.4782 118.099L86.9337 122.352L103.977 144.568ZM87 129.206V139H115V129.206H87ZM101 153H131V125H101V153ZM145 139V106.19H117V139H145ZM139.522 117.298L158.017 103.108L140.974 80.8924L122.478 95.0824L139.522 117.298ZM131 106H134.12V78H131V106ZM145 94.3495V92H117V94.3495H145ZM125.698 80.8163L122.578 83.1659L139.422 105.533L142.542 103.184L125.698 80.8163ZM-7.92975 79.0645L77.4488 144.568L94.4925 122.353L9.11392 56.8493L-7.92975 79.0645ZM14.592 148.1L14.5921 67.9569L-13.4079 67.9569L-13.408 148.1L14.592 148.1ZM95.3653 214.996L9.98674 137.721L-8.80265 158.48L76.576 235.756L95.3653 214.996ZM71.9707 133.46L71.9707 225.376L99.9707 225.376L99.9707 133.46L71.9707 133.46Z" fill="#D9D9D9" mask="url(#path-1-inside-1_101_19)"/>
</svg>
