<svg width="512" height="512" viewBox="0 0 512 512" fill="none" xmlns="http://www.w3.org/2000/svg">
<g clip-path="url(#clip0_6_8)">
<path d="M327.115 65.5359L265.776 4.1969C262.996 1.41633 259.287 -0.00725217 255.453 0.00107288C251.549 -0.0363898 247.757 1.41633 244.976 4.1969L184.903 64.2705C179.275 69.8982 179.275 79.0474 184.903 84.671L192.649 92.4175C198.081 97.8496 207.563 97.8496 213 92.4175L235.998 69.3696V154.064C235.998 154.323 236.147 154.535 236.193 154.776C236.818 162.156 243.007 167.996 250.554 167.996H261.501C269.456 167.996 275.995 161.536 275.995 153.582V144.124C275.995 144.083 275.995 144.054 275.995 144.02V70.6266L299.001 93.6787C304.629 99.3065 313.758 99.3065 319.381 93.6787L327.115 85.9406C332.743 80.3087 332.743 71.1553 327.115 65.5359Z" fill="white"/>
<path d="M327.107 426.073L319.365 418.314C313.932 412.874 304.446 412.874 299.006 418.314L275.999 441.366V368.297C275.999 368.256 275.999 368.231 275.999 368.193V358.736C275.999 350.777 269.456 344 261.51 344H250.554C243.016 344 236.826 349.99 236.197 357.379C236.152 357.624 236.002 357.999 236.002 358.253V442.632L213.004 419.584C207.567 414.147 198.064 414.147 192.628 419.584L184.886 427.33C179.266 432.954 179.275 442.107 184.903 447.735L244.98 507.804C247.69 510.522 251.307 512 255.041 512H255.582C259.449 512 263.058 510.526 265.772 507.804L327.107 446.469C332.735 440.846 332.735 431.697 327.107 426.073Z" fill="white"/>
<path d="M153.234 235.995H152.002H143.731C143.702 235.995 143.673 235.995 143.639 235.995H70.9201L93.9721 213.068C96.6903 210.354 98.1846 206.791 98.1846 202.933C98.1846 199.07 96.6903 195.477 93.9721 192.768L86.2257 185.038C80.5979 179.41 71.4445 179.418 65.8251 185.046L4.48616 246.381C1.70559 249.157 0.219572 252.883 0.294498 256.704C0.21541 260.679 1.70559 264.401 4.48616 267.181L64.5597 327.259C67.3736 330.073 71.0658 331.48 74.7621 331.48C78.4584 331.48 82.1506 330.073 84.9644 327.259L92.7067 319.517C95.4249 316.803 96.9234 313.177 96.9234 309.318C96.9234 305.456 95.429 301.792 92.7067 299.083L69.663 275.997H153.671C153.925 275.997 154.341 275.935 154.583 275.889C161.967 275.265 167.998 269.158 167.998 261.616V250.652C167.998 242.705 161.189 235.995 153.234 235.995Z" fill="white"/>
<path d="M507.511 246.385L446.172 185.055C440.548 179.427 431.395 179.427 425.771 185.055L418.033 192.801C415.315 195.511 413.816 199.136 413.816 202.995C413.816 206.858 415.311 210.354 418.033 213.068L441.081 235.996H367.895C367.858 235.996 367.829 235.996 367.796 235.996H358.342C350.388 235.996 344.003 242.701 344.003 250.652V261.616C344.003 269.158 349.793 275.256 357.181 275.885C357.427 275.935 357.606 275.997 357.855 275.997H442.342L419.286 299.079C416.572 301.788 415.074 305.443 415.074 309.293C415.074 313.16 416.568 316.794 419.286 319.508L427.037 327.255C429.846 330.069 433.538 331.48 437.235 331.48C440.931 331.48 444.619 330.073 447.433 327.259L507.515 267.181C510.287 264.409 511.773 260.683 511.707 256.858C511.769 252.883 510.283 249.157 507.511 246.385Z" fill="white"/>
<path d="M256.007 215.974C233.941 215.974 215.988 233.927 215.988 255.996C215.988 278.062 233.941 296.019 256.007 296.019C278.072 296.019 296.03 278.062 296.03 255.996C296.03 233.927 278.072 215.974 256.007 215.974Z" fill="white"/>
</g>
<defs>
<clipPath id="clip0_6_8">
<rect width="512" height="512" fill="white"/>
</clipPath>
</defs>
</svg>
