<svg width="512" height="512" viewBox="0 0 512 512" fill="none" xmlns="http://www.w3.org/2000/svg">
<g clip-path="url(#clip0_6_30)">
<path d="M255.994 0C245.899 0 237.771 8.12833 237.771 18.2231V208.051C237.771 218.145 245.899 226.273 255.994 226.273C266.089 226.273 274.217 218.145 274.217 208.051V18.2231C274.217 8.12833 266.089 0 255.994 0V0ZM18.2289 237.777C8.13418 237.777 0.00622559 245.905 0.00622559 256C0.00622559 266.095 8.13418 274.223 18.2289 274.223H208.057C218.151 274.223 226.28 266.095 226.28 256C226.28 245.905 218.151 237.777 208.057 237.777H18.2289ZM303.955 237.777C293.861 237.777 285.732 245.905 285.732 256C285.732 266.095 293.861 274.223 303.955 274.223H493.771C503.866 274.223 511.994 266.095 511.994 256C511.994 245.905 503.866 237.777 493.771 237.777H303.955ZM255.994 285.727C245.899 285.727 237.771 293.855 237.771 303.949V493.777C237.771 503.872 245.899 512 255.994 512C266.089 512 274.217 503.872 274.217 493.777V303.949C274.217 293.855 266.089 285.727 255.994 285.727V285.727Z" fill="white"/>
</g>
<defs>
<clipPath id="clip0_6_30">
<rect width="512" height="512" fill="white"/>
</clipPath>
</defs>
</svg>
