<svg width="512" height="512" viewBox="0 0 512 512" fill="none" xmlns="http://www.w3.org/2000/svg">
<path d="M356.41 32.203L363.007 25.606C368.865 19.749 368.865 10.251 363.007 4.39299C357.15 -1.46401 347.652 -1.46401 341.794 4.39299L309.66 36.527C306.847 39.34 305.266 43.155 305.266 47.133C305.266 51.111 306.846 54.927 309.66 57.739L341.794 89.872C347.65 95.729 357.147 95.732 363.007 89.872C368.865 84.014 368.865 74.517 363.007 68.659L356.576 62.228C408.389 64.423 449.867 107.255 449.867 159.598C449.867 167.882 456.583 174.598 464.867 174.598C473.151 174.598 479.867 167.882 479.867 159.598C479.866 90.656 424.847 34.329 356.41 32.203Z" fill="white"/>
<path d="M352.4 144.6H159.6C151.316 144.6 144.6 151.316 144.6 159.6V352.4C144.6 360.684 151.316 367.4 159.6 367.4H352.4C360.684 367.4 367.4 360.684 367.4 352.4V159.6C367.4 151.315 360.685 144.6 352.4 144.6ZM337.4 337.4H174.6V174.6H337.4V337.4Z" fill="white"/>
<path d="M170.206 422.127C164.35 416.27 154.853 416.267 148.993 422.127C143.135 427.985 143.135 437.482 148.993 443.34L155.424 449.771C103.611 447.576 62.1331 404.744 62.1331 352.401C62.1331 344.117 55.4171 337.401 47.1331 337.401C38.8491 337.401 32.1331 344.117 32.1331 352.401C32.1331 421.344 87.1531 477.671 155.589 479.797L148.992 486.394C143.134 492.251 143.134 501.749 148.992 507.607C154.849 513.464 164.347 513.464 170.205 507.607L202.339 475.473C205.152 472.66 206.733 468.845 206.733 464.867C206.733 460.889 205.153 457.073 202.339 454.261L170.206 422.127Z" fill="white"/>
</svg>
