<svg width="512" height="512" viewBox="0 0 512 512" fill="none" xmlns="http://www.w3.org/2000/svg">
<g clip-path="url(#clip0_6_25)">
<path d="M497 0H136C127.716 0 121 6.716 121 15V241H15C6.716 241 0 247.716 0 256V497C0 505.284 6.716 512 15 512H256C264.284 512 271 505.284 271 497V391H497C505.284 391 512 384.284 512 376V15C512 6.716 505.284 0 497 0ZM241 482H30V271H121V376C121 384.284 127.716 391 136 391H241V482ZM241 361H151V271H241V361ZM482 361H271V256C271 247.716 264.284 241 256 241H151V30H482V361Z" fill="white"/>
<path d="M326.606 206.607L421 112.213V136C421 144.284 427.716 151 436 151C444.284 151 451 144.284 451 136V76C451 75.985 450.998 75.971 450.998 75.956C450.986 72.066 449.428 68.215 446.607 65.394C446.49 65.319 442.47 61 435.997 61H376C367.716 61 361 67.716 361 76C361 84.284 367.716 91 376 91H399.787L305.394 185.393C299.536 191.251 299.536 200.748 305.394 206.606C311.25 212.464 320.749 212.465 326.606 206.607V206.607Z" fill="white"/>
</g>
<defs>
<clipPath id="clip0_6_25">
<rect width="512" height="512" fill="white"/>
</clipPath>
</defs>
</svg>
