<svg width="120" height="18" viewBox="0 0 120 18" fill="none" xmlns="http://www.w3.org/2000/svg">
<path fill-rule="evenodd" clip-rule="evenodd" d="M16.7259 13.57C16.6263 13.8124 16.5714 14.078 16.5714 14.3563C16.5714 15.5003 17.4988 16.4277 18.6429 16.4277C19.7869 16.4277 20.7143 15.5003 20.7143 14.3563C20.7143 14.077 20.659 13.8106 20.5588 13.5675L26.1398 7.98654C26.3829 8.08675 26.6493 8.14202 26.9286 8.14202C28.0726 8.14202 29 7.21461 29 6.07059C29 4.92657 28.0726 3.99916 26.9286 3.99916C26.2509 3.99916 25.6492 4.32461 25.2713 4.82774L20.3002 4.82774C19.9222 4.32461 19.3206 3.99916 18.6429 3.99916C17.4988 3.99916 16.5714 4.92657 16.5714 6.07059C16.5714 6.38336 16.6407 6.67994 16.7649 6.9458L14.5642 9.14646L12.2743 6.85653C12.3737 6.61417 12.4286 6.34879 12.4286 6.07059C12.4286 4.92657 11.5012 3.99916 10.3571 3.99916C9.67945 3.99916 9.07776 4.32461 8.69985 4.82774L3.72872 4.82774C3.35081 4.32461 2.74913 3.99916 2.07143 3.99917C0.927411 3.99917 9.01885e-07 4.92658 1.0019e-06 6.07059C1.10191e-06 7.21461 0.927411 8.14202 2.07143 8.14202C2.34977 8.14202 2.6153 8.08712 2.85776 7.98756L8.44018 13.57C8.34062 13.8124 8.28571 14.078 8.28571 14.3563C8.28572 15.5003 9.21313 16.4277 10.3571 16.4277C11.5012 16.4277 12.4286 15.5003 12.4286 14.3563C12.4286 14.1131 12.3867 13.8797 12.3096 13.6628L14.5642 11.4083L16.7259 13.57ZM17.8569 12.4392C18.0993 12.3397 18.3647 12.2849 18.6429 12.2849C18.9201 12.2849 19.1846 12.3393 19.4263 12.4382L25.0104 6.85405C24.9622 6.73605 24.9245 6.6126 24.8986 6.48488L20.6728 6.48488C20.4809 7.43038 19.645 8.14202 18.6429 8.14202C18.3996 8.14202 18.1662 8.1001 17.9494 8.02309L15.6951 10.2774L17.8569 12.4392ZM13.4333 10.2774L11.1435 7.98756C10.901 8.08712 10.6355 8.14202 10.3571 8.14202C9.355 8.14202 8.51908 7.43038 8.32715 6.48488L4.10142 6.48488C4.07532 6.61349 4.03729 6.73777 3.98856 6.85653L9.57121 12.4392C9.81357 12.3397 10.079 12.2849 10.3571 12.2849C10.6699 12.2849 10.9665 12.3542 11.2323 12.4783L13.4333 10.2774Z" fill="white"/>
<path d="M46.9514 7.7L45.2234 14H43.2434L42.2714 9.698H42.0914L41.0834 14H39.1034L37.4114 7.7H38.7614L39.9314 12.956H40.2914L41.5874 7.7H42.8474L44.0714 12.956H44.4314L45.6014 7.7H46.9514ZM50.1977 6.62H48.9377V5.18H50.1977V6.62ZM50.1977 14H48.9377V8.6L50.1977 7.34V14ZM57.757 10.22H56.497V8.78H53.977V14H52.717V7.7H53.977V8.6L54.877 7.7H56.497C56.845 7.7 57.139 7.826 57.379 8.078C57.631 8.318 57.757 8.612 57.757 8.96V10.22ZM66.0307 14H60.9907C60.6427 14 60.3427 13.88 60.0907 13.64C59.8507 13.388 59.7307 13.088 59.7307 12.74V8.96C59.7307 8.612 59.8507 8.318 60.0907 8.078C60.3427 7.826 60.6427 7.7 60.9907 7.7H64.7707C65.1187 7.7 65.4127 7.826 65.6527 8.078C65.9047 8.318 66.0307 8.612 66.0307 8.96V10.22L64.7707 11.48H61.1707L62.2507 10.4H64.7707V8.78H60.9907V12.92H66.0307V14ZM73.59 3.92L72.492 5H69.45V8.42L70.188 7.7H73.41L72.312 8.78H69.45V14H68.19V5.18C68.19 4.832 68.31 4.538 68.55 4.298C68.802 4.046 69.102 3.92 69.45 3.92H73.59ZM79.6242 10.22H78.3642V8.78H75.8442V14H74.5842V7.7H75.8442V8.6L76.7442 7.7H78.3642C78.7122 7.7 79.0062 7.826 79.2462 8.078C79.4982 8.318 79.6242 8.612 79.6242 8.96V10.22ZM87.6279 14H86.3679V13.082L85.2879 14H82.5879C82.2399 14 81.9399 13.88 81.6879 13.64C81.4479 13.388 81.3279 13.088 81.3279 12.74V11.48C81.3279 11.132 81.4479 10.838 81.6879 10.598C81.9399 10.346 82.2399 10.22 82.5879 10.22H86.1879L85.1079 11.282H82.5879V12.92H86.3679V8.78H81.3279L82.4079 7.7H86.3679C86.7159 7.7 87.0099 7.826 87.2499 8.078C87.5019 8.318 87.6279 8.612 87.6279 8.96V14ZM100.761 14H99.5009V8.78H96.0809V14H94.8209V8.78H91.4009V14H90.1409V7.7H91.4009V8.6L92.3009 7.7H94.8209C95.5529 7.7 95.9669 8.006 96.0629 8.618L96.9809 7.7H99.5009C99.8489 7.7 100.143 7.826 100.383 8.078C100.635 8.318 100.761 8.612 100.761 8.96V14ZM109.589 14H104.549C104.201 14 103.901 13.88 103.649 13.64C103.409 13.388 103.289 13.088 103.289 12.74V8.96C103.289 8.612 103.409 8.318 103.649 8.078C103.901 7.826 104.201 7.7 104.549 7.7H108.329C108.677 7.7 108.971 7.826 109.211 8.078C109.463 8.318 109.589 8.612 109.589 8.96V10.22L108.329 11.48H104.729L105.809 10.4H108.329V8.78H104.549V12.92H109.589V14Z" fill="white"/>
</svg>
